# xmcd
#
# Track frame offsets:
#	150
#	14032
#	26645
#	42425
#	57160
#	75002
#	85210
#	102462
#	116107
#	131495
#	144140
#	163810
#	181642
#	202602
#	220132
#	236007
#
# Disc length: 3415 seconds
#
# Revision: 2
# Processed by: cddbd v1.5.2PL0 Copyright (c) Steve Scherf et al.
# Submitted via: audiograbber 1.83.01
#
DISCID=cc0d5510
DTITLE=Clint Black - 16 BIGGEST HITS
DYEAR=2006
DGENRE=Country
TTITLE0=A Better Man
TTITLE1=Killin' Time
TTITLE2=Nobod's Home
TTITLE3=Put Yourself in my Shoes
TTITLE4=Loving Blind
TTITLE5=One More Payment
TTITLE6=Burn One Down
TTITLE7=Half the Man
TTITLE8=Untanglin' My Mind
TTITLE9=Summers Comin'
TTITLE10=Like the Rain
TTITLE11=Half Way Up
TTITLE12=Still Holding On
TTITLE13=Nothin' But The Taillights
TTITLE14=The Shoes You're Wearing
TTITLE15=When I Said I Do
EXTD=
EXTT0=
EXTT1=
EXTT2=
EXTT3=
EXTT4=
EXTT5=
EXTT6=
EXTT7=
EXTT8=
EXTT9=
EXTT10=
EXTT11=
EXTT12=
EXTT13=
EXTT14=
EXTT15=
PLAYORDER=
